<?xml version="1.0" standalone="no"?>
<!DOCTYPE svg PUBLIC "-//W3C//DTD SVG 20010904//EN"
 "http://www.w3.org/TR/2001/REC-SVG-20010904/DTD/svg10.dtd">
<svg version="1.0" xmlns="http://www.w3.org/2000/svg"
 width="900.000000pt" height="460.000000pt" viewBox="0 0 900.000000 460.000000"
 preserveAspectRatio="xMidYMid meet">
<metadata>
Created by potrace 1.15, written by Peter Selinger 2001-2017
</metadata>
<g transform="translate(0.000000,460.000000) scale(0.100000,-0.100000)"
fill="#000000" stroke="none">
<path d="M4360 3979 c-50 -20 -99 -62 -146 -122 -74 -95 -145 -167 -184 -187
-19 -10 -63 -43 -97 -73 -56 -50 -69 -57 -150 -75 -48 -11 -122 -26 -163 -32
-127 -21 -170 -42 -247 -123 -37 -40 -79 -89 -93 -109 -21 -31 -33 -39 -70
-44 -35 -5 -56 -18 -98 -57 l-53 -51 -103 -3 -103 -3 -34 48 -34 47 -3 -52
c-2 -40 -7 -53 -19 -53 -8 0 -41 24 -72 53 -32 28 -73 58 -91 64 l-34 13 41
-43 c43 -45 66 -81 57 -90 -7 -7 -68 1 -113 15 -19 6 -55 26 -80 45 -44 34
-48 35 -111 30 -90 -7 -162 -31 -212 -72 -24 -19 -83 -56 -133 -82 -49 -26
-110 -68 -135 -93 -48 -47 -67 -73 -240 -325 -113 -165 -148 -208 -162 -199
-5 3 -22 24 -38 45 -31 43 -40 37 -40 -30 l0 -38 -77 3 c-43 2 -94 -1 -113 -5
l-35 -7 60 -23 c72 -27 99 -45 92 -63 -4 -11 -189 -134 -219 -146 -4 -2 -12 7
-17 20 -9 22 -10 21 -10 -8 -1 -20 -12 -44 -33 -67 -18 -20 -60 -87 -94 -149
l-61 -113 -47 3 c-60 5 -84 -11 -136 -87 -46 -69 -50 -94 -17 -116 28 -18 179
-39 221 -31 39 8 66 34 66 62 0 20 3 22 22 15 17 -7 22 -16 21 -37 -1 -16 3
-32 10 -36 24 -15 66 -8 81 13 13 19 18 20 51 9 33 -11 36 -15 30 -40 -15 -66
37 -99 165 -106 88 -5 110 2 122 36 2 7 14 7 38 -1 19 -7 36 -13 38 -14 2 -2
-6 -18 -17 -36 -63 -103 9 -221 184 -305 117 -56 203 -72 439 -78 206 -6 209
-6 232 -31 13 -14 26 -25 29 -25 18 0 50 37 47 53 -2 12 10 31 32 52 27 24 36
41 36 64 0 35 5 37 57 16 23 -9 67 -14 108 -14 39 1 226 -2 418 -6 246 -5 347
-11 346 -19 -3 -26 2 -34 29 -44 52 -20 118 -31 223 -38 114 -7 163 2 194 36
17 18 17 21 1 46 -10 14 -15 29 -11 32 11 12 260 14 365 3 117 -12 252 -37
443 -82 104 -25 127 -34 125 -48 -2 -11 -16 -17 -48 -19 -55 -4 -70 -21 -70
-83 0 -43 2 -48 34 -63 52 -25 176 -17 176 10 0 25 46 15 76 -17 45 -48 61
-53 189 -59 l120 -5 14 -47 c17 -58 33 -64 152 -60 l86 3 -5 44 -5 45 125 -1
c133 -1 180 10 226 54 43 40 55 75 49 143 l-6 62 56 7 c31 4 59 3 65 -3 5 -5
26 -6 48 -2 28 5 43 3 54 -8 19 -19 46 -9 46 18 0 16 6 20 34 20 28 0 35 -4
40 -26 11 -43 220 -133 312 -134 32 0 44 -14 44 -50 0 -10 16 -30 35 -44 39
-30 42 -23 20 39 -8 21 -13 40 -12 41 1 1 60 17 131 34 136 33 163 43 183 69
15 20 17 86 3 112 -9 17 -7 19 18 19 42 0 121 43 193 106 66 57 142 114 154
114 4 0 21 -6 38 -14 72 -33 111 -46 137 -46 40 0 42 -8 14 -56 -24 -40 -24
-45 -10 -72 15 -30 46 -42 107 -42 19 0 29 -5 29 -15 0 -24 57 -20 65 5 3 11
13 20 20 20 22 0 64 42 70 70 8 32 -16 55 -76 74 -38 12 -41 15 -22 21 13 4
20 12 16 21 -3 9 2 14 13 14 39 1 130 40 151 65 33 37 37 68 17 110 -11 25
-31 43 -63 59 l-46 24 38 10 c26 7 47 8 64 1 32 -12 57 -4 81 26 16 20 29 23
108 27 49 3 97 8 106 12 12 6 17 2 20 -14 6 -37 27 -26 42 23 3 10 15 17 30
17 49 0 64 74 19 90 -16 5 -39 16 -53 25 -14 8 -44 24 -67 35 -25 12 -50 34
-59 51 -23 45 -74 63 -156 56 l-67 -6 -94 127 c-122 166 -212 268 -289 329
-35 27 -127 113 -205 190 -127 125 -143 145 -143 174 l0 34 -18 -23 -17 -22
-36 37 c-20 21 -61 70 -92 109 -30 39 -70 83 -89 99 -45 39 -188 104 -338 155
-112 38 -131 42 -191 37 -120 -10 -189 -54 -315 -202 l-51 -60 -32 28 c-18 15
-37 27 -42 27 -6 0 -43 31 -83 69 -82 78 -135 108 -202 118 l-46 6 5 45 5 44
-22 -38 c-18 -33 -27 -39 -59 -42 l-37 -3 0 63 c0 35 -5 81 -12 103 l-12 40
-7 -30 c-3 -16 -7 -56 -8 -88 -2 -93 -36 -89 -175 24 -156 128 -161 131 -234
139 -124 13 -168 50 -276 234 -109 185 -232 278 -371 283 -38 2 -81 -2 -95 -8z"/>
<path d="M415 1816 c-55 -18 -105 -45 -105 -57 0 -13 33 -25 122 -43 67 -14
76 -14 107 2 48 24 60 46 37 70 -9 11 -29 22 -44 25 -15 3 -38 8 -52 11 -14 3
-43 -1 -65 -8z"/>
<path d="M8073 1562 c-22 -14 -73 -97 -73 -119 0 -27 42 -69 88 -89 19 -8 62
-18 98 -21 54 -5 64 -9 64 -24 0 -24 30 -25 71 -4 25 13 29 21 29 53 -1 20 2
51 5 68 8 38 -9 74 -34 74 -9 0 -31 16 -48 35 -31 34 -33 35 -110 35 -43 0
-83 -4 -90 -8z"/>
<path d="M4355 1094 c-61 -18 -105 -23 -182 -24 -56 0 -114 -5 -130 -11 -36
-13 -83 -58 -83 -78 0 -51 81 -118 201 -167 71 -29 157 -34 259 -14 30 6 95
15 143 20 90 9 137 28 137 55 0 8 -4 15 -9 15 -6 0 -13 21 -17 48 -7 52 -46
102 -94 122 -16 6 -30 20 -33 29 -4 18 -48 32 -91 30 -11 -1 -57 -12 -101 -25z"/>
<path d="M3750 927 c-45 -16 -62 -57 -36 -86 18 -20 93 -41 146 -41 18 0 34 8
44 22 25 35 20 64 -17 92 -37 29 -80 32 -137 13z"/>
</g>
</svg>
